<svg width="390" height="319" viewBox="0 0 390 319" fill="none" xmlns="http://www.w3.org/2000/svg">
<g clip-path="url(#clip0_2818_24770)">
<path d="M44.0427 -5.64795C44.726 -5.6483 45.1532 -4.90858 44.8112 -4.31689L39.195 5.3999C38.8559 5.98614 38.0114 5.99153 37.6648 5.40967L35.8532 2.3667L15.9655 13.7026C15.1516 14.1664 14.1406 14.0668 13.4353 13.4702L13.2986 13.3442L8.33664 8.38232L-12.1624 20.1431C-12.1838 20.1586 -12.2039 20.1763 -12.2268 20.1899L-18.0686 23.6685C-18.4196 23.8773 -18.868 23.8198 -19.1546 23.5288L-21.0169 21.6372C-21.4238 21.2237 -21.3307 20.537 -20.8284 20.2466L-17.4534 18.2944L-17.4544 18.2915L-16.6106 17.8062L-11.7161 14.9771C-11.6604 14.9448 -11.6028 14.921 -11.5462 14.9019L7.56906 3.93701L7.7341 3.85107C8.51687 3.48501 9.44419 3.60778 10.1042 4.16553L10.2409 4.29248L15.2048 9.25635L33.6843 -1.27686L31.8884 -4.29541C31.5366 -4.88647 31.9623 -5.63554 32.6501 -5.63623L44.0427 -5.64795Z" fill="#002B7F"/>
<path d="M26.9579 28.5215C27.6412 28.5211 28.0684 29.2608 27.7264 29.8525L22.1102 39.5693C21.7711 40.1555 20.9266 40.1609 20.58 39.5791L18.7684 36.5361L-1.11926 47.8721C-1.93318 48.3358 -2.94422 48.2362 -3.64953 47.6396L-3.78625 47.5137L-8.74817 42.5518L-29.2579 54.3174C-29.2762 54.3302 -29.2924 54.3459 -29.3116 54.3574L-35.1534 57.8369C-35.5044 58.0457 -35.9528 57.9882 -36.2394 57.6973L-38.1017 55.8057C-38.5087 55.3922 -38.4155 54.7055 -37.9132 54.415L-34.5382 52.4629L-34.5392 52.4609L-33.9054 52.0967L-28.8009 49.1455C-28.7438 49.1125 -28.6851 49.0877 -28.6271 49.0684L-9.51574 38.1064L-9.3507 38.0205C-8.56793 37.6544 -7.64061 37.7772 -6.98059 38.335L-6.84387 38.4619L-1.88 43.4258L16.5995 32.8926L14.8036 29.874C14.4518 29.283 14.8775 28.5339 15.5653 28.5332L26.9579 28.5215Z" fill="#002B7F"/>
<path d="M97.4325 -0.949707C98.1158 -0.95005 98.5429 -0.210311 98.2011 0.381348L92.5849 10.0981C92.2458 10.6846 91.4012 10.69 91.0546 10.1079L89.2431 7.06494L69.3554 18.4009C68.5415 18.8647 67.5305 18.765 66.8251 18.1685L66.6884 18.0425L61.7265 13.0806L41.2206 24.8442C41.2012 24.8581 41.1837 24.8749 41.163 24.8872L35.3212 28.3657C34.9702 28.5746 34.5219 28.5171 34.2353 28.2261L32.373 26.3345C31.9661 25.921 32.0592 25.2343 32.5614 24.9438L35.9364 22.9917L35.9355 22.9897L36.5693 22.6255L41.6738 19.6743C41.7305 19.6415 41.789 19.6174 41.8466 19.5981L60.9589 8.63525L61.1239 8.54932C61.9067 8.18327 62.834 8.30609 63.4941 8.86377L63.6308 8.99072L68.5947 13.9546L87.0741 3.42139L85.2782 0.402832C84.9265 -0.188231 85.3521 -0.937298 86.04 -0.937988L97.4325 -0.949707Z" fill="#002B7F"/>
<path d="M9.87377 62.6919C10.5571 62.6915 10.9843 63.4313 10.6423 64.0229L5.02612 73.7397C4.68699 74.3259 3.84245 74.3313 3.49585 73.7495L1.68432 70.7065L-18.2034 82.0425C-19.0173 82.5062 -20.0283 82.4066 -20.7336 81.8101L-20.8704 81.6841L-25.8323 76.7222L-46.3381 88.4858C-46.3576 88.4997 -46.3751 88.5165 -46.3958 88.5288L-52.2376 92.0073C-52.5886 92.2163 -53.0368 92.1588 -53.3235 91.8677L-55.1858 89.9771C-55.5929 89.5636 -55.4996 88.8769 -54.9973 88.5864L-51.6223 86.6333L-51.6233 86.6313L-50.8743 86.2007L-45.885 83.3159C-45.8283 83.2831 -45.7698 83.259 -45.7122 83.2397L-26.5999 72.2769L-26.4348 72.1909C-25.652 71.8249 -24.7247 71.9476 -24.0647 72.5054L-23.928 72.6323L-18.9641 77.5962L-0.484624 67.063L-2.28052 64.0444C-2.63231 63.4534 -2.20663 62.7043 -1.5188 62.7036L9.87377 62.6919Z" fill="#002B7F"/>
<path d="M80.3481 33.2202C81.0313 33.2199 81.4585 33.9596 81.1166 34.5513L75.5004 44.2681C75.1613 44.8545 74.3167 44.8599 73.9701 44.2778L72.1586 41.2349L52.2709 52.5708C51.457 53.0346 50.446 52.9349 49.7407 52.3384L49.6039 52.2124L44.642 47.2505L24.1391 59.0122C24.1187 59.0268 24.1002 59.0442 24.0785 59.0571L18.2368 62.5366C17.8858 62.7454 17.4374 62.687 17.1508 62.396L15.2885 60.5054C14.8814 60.0919 14.9747 59.4052 15.477 59.1147L18.852 57.1616L18.851 57.1597L19.6 56.729L24.5893 53.8442C24.6461 53.8114 24.7045 53.7874 24.7621 53.7681L43.8744 42.8052L44.0395 42.7192C44.8222 42.3532 45.7496 42.476 46.4096 43.0337L46.5463 43.1606L51.5102 48.1245L69.9897 37.5913L68.1938 34.5728C67.842 33.9817 68.2677 33.2326 68.9555 33.2319L80.3481 33.2202Z" fill="#002B7F"/>
<path d="M150.823 3.74902C151.506 3.74865 151.933 4.48838 151.591 5.08008L145.975 14.7969C145.636 15.383 144.791 15.3884 144.445 14.8066L142.633 11.7637L122.746 23.0996C121.932 23.5634 120.921 23.4637 120.215 22.8672L120.079 22.7412L115.117 17.7793L94.6138 29.541C94.5934 29.5557 94.5749 29.573 94.5532 29.5859L88.7114 33.0654C88.3605 33.2742 87.9121 33.2167 87.6255 32.9258L85.7632 31.0342C85.3562 30.6207 85.4494 29.934 85.9516 29.6436L89.3266 27.6914L89.3257 27.6885L90.1694 27.2031L95.0639 24.374C95.1201 24.3416 95.1778 24.3171 95.2348 24.2979L114.349 13.334L114.514 13.248C115.297 12.882 116.224 13.0047 116.884 13.5625L117.021 13.6895L121.985 18.6533L140.464 8.12012L138.668 5.10156C138.317 4.5105 138.742 3.76143 139.43 3.76074L150.823 3.74902Z" fill="#002B7F"/>
<path d="M221.298 -25.7222C221.981 -25.7225 222.408 -24.9828 222.066 -24.3911L216.45 -14.6743C216.111 -14.0879 215.266 -14.0825 214.92 -14.6646L213.108 -17.7075L193.22 -6.37158C192.406 -5.90774 191.395 -6.00744 190.69 -6.604L190.553 -6.72998L185.591 -11.6919L165.089 0.0698243C165.068 0.0844534 165.05 0.101819 165.028 0.114746L159.186 3.59424C158.835 3.80303 158.387 3.74466 158.1 3.45361L156.238 1.56299C155.831 1.14951 155.924 0.462856 156.426 0.172363L159.801 -1.78076L159.8 -1.78271L160.549 -2.21338L165.539 -5.09814C165.596 -5.13097 165.654 -5.15501 165.712 -5.17432L184.824 -16.1372L184.989 -16.2231C185.772 -16.5892 186.699 -16.4664 187.359 -15.9087L187.496 -15.7817L192.46 -10.8179L210.939 -21.3511L209.143 -24.3696C208.791 -24.9607 209.217 -25.7098 209.905 -25.7104L221.298 -25.7222Z" fill="#002B7F"/>
<path d="M63.2633 67.3892C63.9466 67.3888 64.3738 68.1285 64.0319 68.7202L58.4156 78.437C58.0765 79.0233 57.232 79.0287 56.8854 78.4468L55.0738 75.4038L35.1862 86.7397C34.3722 87.2035 33.3612 87.1039 32.6559 86.5073L32.5192 86.3813L27.5572 81.4194L7.05432 93.1812C7.03394 93.1958 7.01545 93.2132 6.99377 93.2261L1.15197 96.7046C0.800922 96.9136 0.3527 96.8561 0.0660356 96.5649L-1.79627 94.6743C-2.20338 94.2608 -2.11011 93.5742 -1.60779 93.2837L1.76721 91.3306L1.76623 91.3286L2.51525 90.8979L7.50451 88.0132C7.56126 87.9804 7.6197 87.9563 7.67736 87.937L26.7897 76.9741L26.9547 76.8882C27.7375 76.5221 28.6648 76.6449 29.3248 77.2026L29.4615 77.3296L34.4254 82.2935L52.9049 71.7603L51.109 68.7417C50.7572 68.1506 51.1829 67.4016 51.8707 67.4009L63.2633 67.3892Z" fill="#002B7F"/>
<path d="M133.738 37.9189C134.421 37.9186 134.848 38.6583 134.506 39.25L128.89 48.9668C128.551 49.5529 127.707 49.5583 127.36 48.9766L125.548 45.9336L105.661 57.2695C104.847 57.7333 103.836 57.6336 103.131 57.0371L102.994 56.9111L98.0319 51.9492L77.5221 63.7148C77.5039 63.7277 77.4876 63.7434 77.4684 63.7549L71.6266 67.2344C71.2757 67.4431 70.8272 67.3856 70.5407 67.0947L68.6784 65.2031C68.2713 64.7896 68.3645 64.103 68.8668 63.8125L72.2418 61.8594L72.2409 61.8584L72.7838 61.5459L77.9791 58.542C78.0362 58.509 78.095 58.4852 78.153 58.4658L97.2643 47.5039L97.4293 47.418C98.2121 47.0519 99.1394 47.1747 99.7994 47.7324L99.9362 47.8594L104.9 52.8232L123.38 42.29L121.584 39.2715C121.232 38.6804 121.658 37.9304 122.345 37.9297L133.738 37.9189Z" fill="#002B7F"/>
<path d="M204.212 8.44629C204.896 8.44593 205.323 9.18566 204.981 9.77734L199.365 19.4941C199.026 20.0804 198.181 20.0858 197.835 19.5039L196.023 16.4609L176.135 27.7969C175.321 28.2607 174.31 28.161 173.605 27.5645L173.468 27.4385L168.506 22.4766L148.007 34.2373C147.986 34.2529 147.966 34.2705 147.943 34.2842L142.101 37.7627C141.75 37.9716 141.302 37.9141 141.015 37.623L139.153 35.7314C138.746 35.3179 138.839 34.6313 139.341 34.3408L142.716 32.3887L142.715 32.3857L143.559 31.9004L148.454 29.0713C148.509 29.0391 148.567 29.0153 148.624 28.9961L167.739 18.0313L167.904 17.9453C168.687 17.5793 169.614 17.7021 170.274 18.2598L170.411 18.3867L175.375 23.3506L193.854 12.8174L192.058 9.79883C191.706 9.20776 192.132 8.4587 192.82 8.45801L204.212 8.44629Z" fill="#002B7F"/>
<path d="M274.687 -21.0244C275.371 -21.0248 275.798 -20.285 275.456 -19.6934L269.84 -9.97656C269.501 -9.39021 268.656 -9.38482 268.309 -9.9668L266.498 -13.0098L246.61 -1.67383C245.796 -1.21002 244.785 -1.3097 244.08 -1.90625L243.943 -2.03223L238.981 -6.99414L218.478 4.76758C218.458 4.78221 218.44 4.79958 218.418 4.8125L212.576 8.29102C212.225 8.50007 211.777 8.44252 211.49 8.15137L209.628 6.26074C209.221 5.84727 209.314 5.16061 209.816 4.87012L213.191 2.91699L213.19 2.91504L213.939 2.48438L218.929 -0.40039C218.985 -0.433209 219.044 -0.457261 219.101 -0.476562L238.214 -11.4395L238.379 -11.5254C239.162 -11.8914 240.089 -11.7686 240.749 -11.2109L240.886 -11.084L245.849 -6.12012L264.329 -16.6533L262.533 -19.6719C262.181 -20.2629 262.607 -21.012 263.295 -21.0127L274.687 -21.0244Z" fill="#002B7F"/>
<path d="M46.1788 101.559C46.862 101.559 47.2892 102.298 46.9473 102.89L41.3311 112.607C40.992 113.193 40.1474 113.199 39.8008 112.617L37.9903 109.575L18.1016 120.911C17.2877 121.374 16.2766 121.275 15.5713 120.678L15.4346 120.552L10.4727 115.59L-10.0371 127.356C-10.0553 127.369 -10.0715 127.385 -10.0908 127.396L-15.9326 130.875C-16.2836 131.084 -16.7318 131.026 -17.0185 130.735L-18.8808 128.844C-19.2879 128.431 -19.1946 127.744 -18.6923 127.454L-15.3173 125.5L-15.3183 125.5L-14.7753 125.187L-9.58002 122.183C-9.52202 122.15 -9.46221 122.125 -9.40326 122.106L9.70513 111.145L9.87017 111.059C10.653 110.693 11.5803 110.816 12.2403 111.374L12.377 111.5L17.3409 116.464L35.8213 105.93L34.0245 102.912C33.6727 102.321 34.0984 101.571 34.7862 101.571L46.1788 101.559Z" fill="#002B7F"/>
<path d="M116.653 72.0874C117.336 72.087 117.763 72.8268 117.422 73.4185L111.805 83.1353C111.466 83.7218 110.622 83.7272 110.275 83.145L108.465 80.103L88.5759 91.439C87.762 91.9027 86.7509 91.8031 86.0456 91.2065L85.9089 91.0806L80.947 86.1187L60.4372 97.8843C60.419 97.8971 60.4028 97.9128 60.3835 97.9243L54.5417 101.404C54.1907 101.613 53.7424 101.554 53.4558 101.263L51.5935 99.3726C51.1864 98.9591 51.2797 98.2724 51.782 97.9819L55.157 96.0288L55.156 96.0278L55.699 95.7153L60.8943 92.7114C60.9527 92.6776 61.0126 92.6528 61.072 92.6333L80.1794 81.6733L80.3445 81.5874C81.1273 81.2213 82.0545 81.3441 82.7146 81.9019L82.8513 82.0288L87.8152 86.9927L106.296 76.4585L104.499 73.4399C104.147 72.8489 104.573 72.0998 105.26 72.0991L116.653 72.0874Z" fill="#002B7F"/>
<path d="M187.128 42.6167C187.811 42.6163 188.238 43.3561 187.896 43.9478L182.28 53.6646C181.941 54.2509 181.096 54.2563 180.75 53.6743L178.938 50.6313L159.051 61.9673C158.237 62.4311 157.226 62.3314 156.52 61.7349L156.384 61.6089L151.422 56.647L130.916 68.4106C130.896 68.4245 130.879 68.4413 130.858 68.4536L125.016 71.9321C124.665 72.141 124.217 72.0835 123.93 71.7925L122.068 69.9009C121.661 69.4874 121.754 68.8007 122.257 68.5103L125.632 66.5581L125.631 66.5562L126.264 66.1919L131.369 63.2407C131.426 63.2079 131.484 63.1838 131.542 63.1646L150.654 52.2017L150.819 52.1157C151.602 51.7497 152.529 51.8725 153.189 52.4302L153.326 52.5571L158.29 57.521L176.769 46.9878L174.973 43.9692C174.622 43.3782 175.047 42.6291 175.735 42.6284L187.128 42.6167Z" fill="#002B7F"/>
<path d="M257.602 13.145C258.286 13.1446 258.713 13.8844 258.371 14.4761L252.755 24.1929C252.416 24.7794 251.571 24.7848 251.225 24.2026L249.414 21.1606L229.525 32.4966C228.711 32.9603 227.7 32.8607 226.995 32.2642L226.858 32.1382L221.896 27.1763L201.387 38.9419C201.368 38.9547 201.352 38.9705 201.333 38.9819L195.491 42.4614C195.14 42.6702 194.692 42.6118 194.405 42.3208L192.543 40.4302C192.136 40.0167 192.229 39.33 192.731 39.0396L196.106 37.0864L196.105 37.0854L196.648 36.7729L201.844 33.769C201.902 33.7355 201.961 33.7113 202.02 33.6919L221.129 22.731L221.294 22.645C222.077 22.2789 223.004 22.4017 223.664 22.9595L223.801 23.0864L228.765 28.0503L247.245 17.5161L245.448 14.4976C245.096 13.9065 245.522 13.1574 246.21 13.1567L257.602 13.145Z" fill="#002B7F"/>
<path d="M328.077 -16.3257C328.76 -16.3261 329.188 -15.5863 328.846 -14.9946L323.229 -5.27783C322.89 -4.69148 322.046 -4.68609 321.699 -5.26807L319.888 -8.31104L300 3.0249C299.186 3.48871 298.175 3.38903 297.47 2.79248L297.333 2.6665L292.371 -2.29541L271.868 9.46631C271.848 9.48094 271.829 9.49831 271.808 9.51123L265.966 12.9897C265.615 13.1988 265.166 13.1412 264.88 12.8501L263.018 10.9595C262.61 10.546 262.704 9.85934 263.206 9.56885L266.581 7.61572L266.58 7.61377L267.329 7.18311L272.318 4.29834C272.375 4.26552 272.433 4.24147 272.491 4.22217L291.603 -6.74072L291.768 -6.82666C292.551 -7.19271 293.479 -7.0699 294.139 -6.51221L294.275 -6.38525L299.239 -1.42139L317.719 -11.9546L315.923 -14.9731C315.571 -15.5642 315.997 -16.3133 316.685 -16.314L328.077 -16.3257Z" fill="#002B7F"/>
<path d="M29.0938 135.728C29.7772 135.728 30.2044 136.467 29.8624 137.059L24.2462 146.776C23.907 147.362 23.0625 147.367 22.7159 146.786L20.9044 143.743L1.01668 155.079C0.202765 155.542 -0.808286 155.443 -1.51359 154.846L-1.65031 154.72L-6.61222 149.758L-27.1152 161.52C-27.1355 161.535 -27.154 161.552 -27.1757 161.565L-33.0175 165.044C-33.3685 165.253 -33.8168 165.196 -34.1034 164.905L-35.9657 163.013C-36.3727 162.6 -36.2795 161.913 -35.7773 161.623L-32.4023 159.67L-32.4032 159.667L-31.5595 159.182L-26.665 156.353C-26.6092 156.321 -26.5516 156.297 -26.495 156.278L-7.3798 145.313L-7.21476 145.227C-6.432 144.861 -5.50467 144.984 -4.84465 145.542L-4.70793 145.668L0.255939 150.632L18.7354 140.099L16.9395 137.081C16.5877 136.49 17.0134 135.74 17.7013 135.74L29.0938 135.728Z" fill="#002B7F"/>
<path d="M99.5686 106.257C100.252 106.256 100.679 106.996 100.337 107.588L94.721 117.305C94.3819 117.891 93.5373 117.897 93.1907 117.314L91.3792 114.271L71.4915 125.607C70.6776 126.071 69.6666 125.972 68.9612 125.375L68.8245 125.249L63.8626 120.287L43.3597 132.049C43.3393 132.063 43.3208 132.081 43.2991 132.094L37.4573 135.573C37.1063 135.782 36.6579 135.724 36.3714 135.433L34.5091 133.542C34.102 133.129 34.1952 132.442 34.6976 132.151L38.0726 130.198L38.0716 130.196L38.8206 129.766L43.8099 126.881C43.8666 126.848 43.925 126.824 43.9827 126.805L63.095 115.842L63.2601 115.756C64.0428 115.39 64.9702 115.513 65.6302 116.07L65.7669 116.197L70.7308 121.161L89.2102 110.628L87.4144 107.609C87.0626 107.018 87.4882 106.269 88.1761 106.269L99.5686 106.257Z" fill="#002B7F"/>
<path d="M170.043 76.7856C170.726 76.7853 171.154 77.525 170.812 78.1167L165.195 87.8335C164.856 88.4197 164.012 88.4251 163.665 87.8433L161.854 84.8003L141.966 96.1362C141.152 96.6 140.141 96.5003 139.436 95.9038L139.299 95.7778L134.337 90.8159L113.831 102.58C113.812 102.593 113.794 102.61 113.773 102.623L107.932 106.101C107.581 106.31 107.132 106.253 106.846 105.961L104.983 104.071C104.576 103.657 104.67 102.971 105.172 102.68L108.547 100.727L108.546 100.725L109.295 100.294L114.284 97.4097C114.341 97.3769 114.399 97.3528 114.457 97.3335L133.569 86.3706L133.734 86.2847C134.517 85.9186 135.444 86.0414 136.104 86.5991L136.241 86.7261L141.205 91.6899L159.685 81.1567L157.889 78.1382C157.537 77.5471 157.963 76.7981 158.65 76.7974L170.043 76.7856Z" fill="#002B7F"/>
<path d="M240.517 47.314C241.201 47.3136 241.628 48.0533 241.286 48.645L235.67 58.3618C235.331 58.9482 234.486 58.9537 234.139 58.3716L232.328 55.3286L212.441 66.6646C211.627 67.1285 210.616 67.0287 209.911 66.4321L209.774 66.3062L204.812 61.3442L184.308 73.1069C184.288 73.1215 184.27 73.1389 184.248 73.1519L178.406 76.6304C178.055 76.8393 177.607 76.7818 177.32 76.4907L175.458 74.5991C175.051 74.1856 175.144 73.4989 175.646 73.2085L179.022 71.2554L179.021 71.2534L179.744 70.8384L184.759 67.939C184.815 67.9063 184.873 67.8821 184.93 67.8628L204.045 56.8989L204.21 56.813C204.993 56.4472 205.92 56.5696 206.58 57.1274L206.717 57.2544L211.68 62.2183L230.16 51.6851L228.363 48.6665C228.011 48.0754 228.437 47.3264 229.125 47.3257L240.517 47.314Z" fill="#002B7F"/>
<path d="M310.992 17.8433C311.676 17.8429 312.103 18.5826 311.761 19.1743L306.145 28.8911C305.806 29.4773 304.961 29.4827 304.614 28.9009L302.803 25.8579L282.915 37.1938C282.101 37.6576 281.09 37.558 280.385 36.9614L280.248 36.8354L275.286 31.8735L254.78 43.6372C254.761 43.6511 254.743 43.6679 254.723 43.6802L248.881 47.1587C248.53 47.3677 248.082 47.3102 247.795 47.019L245.933 45.1284C245.526 44.7149 245.619 44.0283 246.121 43.7378L249.496 41.7847L249.495 41.7827L250.244 41.3521L255.234 38.4673C255.29 38.4345 255.349 38.4104 255.406 38.3911L274.519 27.4282L274.684 27.3423C275.466 26.9762 276.394 27.099 277.054 27.6567L277.191 27.7837L282.154 32.7476L300.634 22.2144L298.838 19.1958C298.486 18.6047 298.912 17.8557 299.6 17.855L310.992 17.8433Z" fill="#002B7F"/>
<path d="M381.467 -11.6279C382.15 -11.6283 382.577 -10.8885 382.236 -10.2969L376.619 -0.580078C376.28 0.00639099 375.436 0.0117864 375.089 -0.570312L373.278 -3.61328L353.39 7.72266C352.576 8.1865 351.565 8.0868 350.86 7.49023L350.723 7.36426L345.761 2.40234L325.258 14.1641C325.238 14.1787 325.219 14.1961 325.197 14.209L319.356 17.6885C319.005 17.8973 318.556 17.8389 318.27 17.5479L316.407 15.6572C316 15.2437 316.094 14.5571 316.596 14.2666L319.971 12.3135L319.97 12.3115L320.719 11.8809L325.708 8.99609C325.765 8.96327 325.823 8.93922 325.881 8.91992L344.993 -2.04297L345.158 -2.12891C345.941 -2.49495 346.869 -2.37211 347.529 -1.81445L347.665 -1.6875L352.629 3.27637L371.109 -7.25684L369.313 -10.2754C368.961 -10.8665 369.387 -11.6155 370.074 -11.6162L381.467 -11.6279Z" fill="#002B7F"/>
<path d="M12.009 169.898C12.6923 169.898 13.1195 170.637 12.7775 171.229L7.16131 180.946C6.82216 181.532 5.97762 181.537 5.63103 180.956L3.81951 177.913L-16.0682 189.249C-16.8821 189.712 -17.8932 189.613 -18.5985 189.016L-18.7352 188.89L-23.6971 183.928L-44.2069 195.694C-44.2251 195.707 -44.2413 195.722 -44.2606 195.734L-50.1024 199.213C-50.4533 199.422 -50.9017 199.365 -51.1883 199.074L-53.0506 197.182C-53.4576 196.769 -53.3644 196.082 -52.8621 195.792L-49.4871 193.839L-49.4881 193.837L-48.8543 193.473L-43.7498 190.522C-43.6928 190.489 -43.634 190.464 -43.576 190.445L-24.4647 179.483L-24.2996 179.397C-23.5169 179.031 -22.5895 179.154 -21.9295 179.711L-21.7928 179.838L-16.8289 184.802L1.65057 174.269L-0.145333 171.25C-0.497122 170.659 -0.071445 169.91 0.616385 169.91L12.009 169.898Z" fill="#002B7F"/>
<path d="M82.4836 140.426C83.1668 140.426 83.594 141.166 83.2521 141.757L77.6359 151.474C77.2968 152.061 76.4522 152.066 76.1056 151.484L74.2941 148.441L54.4064 159.777C53.5925 160.241 52.5815 160.141 51.8761 159.544L51.7394 159.418L46.7775 154.457L26.2717 166.22C26.2522 166.234 26.2347 166.251 26.214 166.263L20.3722 169.742C20.0212 169.951 19.5729 169.893 19.2863 169.602L17.424 167.71C17.0171 167.297 17.1102 166.61 17.6125 166.32L20.9875 164.368L20.9865 164.366L21.6203 164.001L26.7248 161.05C26.7815 161.018 26.84 160.993 26.8976 160.974L46.0099 150.011L46.175 149.925C46.9577 149.559 47.8851 149.682 48.5451 150.24L48.6818 150.367L53.6457 155.331L72.1252 144.797L70.3293 141.779C69.9775 141.188 70.4032 140.439 71.091 140.438L82.4836 140.426Z" fill="#002B7F"/>
<path d="M152.958 110.955C153.642 110.955 154.069 111.694 153.727 112.286L148.111 122.003C147.771 122.589 146.927 122.594 146.58 122.013L144.769 118.97L124.881 130.306C124.067 130.769 123.056 130.67 122.351 130.073L122.214 129.947L117.252 124.985L96.7463 136.749C96.7268 136.763 96.7093 136.78 96.6887 136.792L90.8469 140.271C90.4958 140.48 90.0476 140.422 89.7609 140.131L87.8986 138.239C87.4919 137.826 87.585 137.14 88.0871 136.85L91.4621 134.896L91.4611 134.895L92.2102 134.464L97.1994 131.579C97.2562 131.546 97.3146 131.522 97.3723 131.503L116.485 120.54L116.65 120.454C117.432 120.088 118.36 120.211 119.02 120.769L119.156 120.896L124.12 125.859L142.6 115.326L140.804 112.308C140.452 111.717 140.878 110.967 141.566 110.966L152.958 110.955Z" fill="#002B7F"/>
<path d="M223.433 81.4839C224.116 81.4835 224.543 82.2233 224.201 82.8149L218.585 92.5317C218.246 93.1181 217.401 93.1235 217.055 92.5415L215.243 89.4985L195.356 100.834C194.542 101.298 193.531 101.199 192.825 100.602L192.689 100.476L187.727 95.5142L167.221 107.278C167.201 107.292 167.184 107.308 167.163 107.321L161.321 110.799C160.97 111.008 160.522 110.951 160.235 110.66L158.373 108.768C157.966 108.355 158.059 107.668 158.562 107.377L161.937 105.425L161.936 105.423L162.569 105.059L167.674 102.108C167.731 102.075 167.789 102.051 167.847 102.032L186.959 91.0688L187.124 90.9829C187.907 90.6169 188.834 90.7397 189.494 91.2974L189.631 91.4243L194.595 96.3882L213.074 85.855L211.278 82.8364C210.927 82.2454 211.352 81.4963 212.04 81.4956L223.433 81.4839Z" fill="#002B7F"/>
<path d="M293.907 52.0127C294.591 52.0123 295.018 52.752 294.676 53.3438L289.06 63.0605C288.72 63.6467 287.876 63.6521 287.529 63.0703L285.718 60.0273L265.831 71.3633C265.017 71.8272 264.006 71.7273 263.301 71.1309L263.164 71.0049L258.202 66.043L237.688 77.8115C237.671 77.8233 237.656 77.838 237.638 77.8486L231.796 81.3281C231.445 81.5369 230.997 81.4794 230.71 81.1885L228.848 79.2969C228.441 78.8834 228.534 78.1967 229.036 77.9063L232.411 75.9531V75.9521L232.836 75.708L238.148 72.6357C238.206 72.6024 238.266 72.579 238.324 72.5596L257.435 61.5977L257.6 61.5117C258.382 61.1458 259.31 61.2683 259.97 61.8262L260.106 61.9531L265.07 66.917L283.55 56.3838L281.753 53.3652C281.401 52.7742 281.827 52.0251 282.515 52.0244L293.907 52.0127Z" fill="#002B7F"/>
<path d="M364.382 22.541C365.065 22.5407 365.493 23.2804 365.151 23.8721L359.534 33.5889C359.195 34.1752 358.351 34.1806 358.004 33.5986L356.193 30.5557L336.305 41.8916C335.491 42.3554 334.48 42.2557 333.775 41.6592L333.638 41.5332L328.676 36.5713L308.173 48.333C308.153 48.3476 308.134 48.365 308.113 48.3779L302.271 51.8564C301.92 52.0655 301.471 52.008 301.185 51.7168L299.323 49.8262C298.915 49.4127 299.009 48.726 299.511 48.4355L302.886 46.4824L302.885 46.4805L303.634 46.0498L308.623 43.165C308.68 43.1322 308.738 43.1082 308.796 43.0889L327.908 32.126L328.073 32.04C328.856 31.674 329.784 31.7968 330.444 32.3545L330.58 32.4814L335.544 37.4453L354.024 26.9121L352.228 23.8936C351.876 23.3025 352.302 22.5534 352.989 22.5527L364.382 22.541Z" fill="#002B7F"/>
<path d="M434.857 -6.92969C435.54 -6.93006 435.967 -6.19033 435.625 -5.59863L430.009 4.11816C429.67 4.70431 428.825 4.70971 428.479 4.12793L426.667 1.08496L406.779 12.4209C405.966 12.8846 404.954 12.785 404.249 12.1885L404.112 12.0625L399.151 7.10059L378.645 18.8643C378.625 18.8781 378.608 18.8949 378.587 18.9072L372.745 22.3857C372.394 22.5947 371.946 22.5372 371.659 22.2461L369.797 20.3545C369.39 19.941 369.483 19.2553 369.985 18.9648L373.36 17.0117L373.36 17.0098L374.109 16.5791L379.098 13.6943C379.155 13.6615 379.213 13.6375 379.271 13.6182L398.383 2.65527L398.548 2.56934C399.331 2.20327 400.258 2.32603 400.918 2.88379L401.055 3.01074L406.019 7.97461L424.498 -2.55859L422.702 -5.57715C422.35 -6.16821 422.776 -6.91728 423.464 -6.91797L434.857 -6.92969Z" fill="#002B7F"/>
<path d="M65.3989 174.596C66.0821 174.596 66.5093 175.336 66.1674 175.927L60.5512 185.644C60.2121 186.23 59.3675 186.236 59.0209 185.654L57.2094 182.611L37.3217 193.947C36.5078 194.411 35.4968 194.311 34.7914 193.714L34.6547 193.588L29.6928 188.626L9.18988 200.388C9.1695 200.403 9.15101 200.42 9.12933 200.433L3.28753 203.912C2.93647 204.121 2.48827 204.063 2.20159 203.772L0.33929 201.881C-0.0678253 201.468 0.0254523 200.781 0.527767 200.491L3.90277 198.538L3.90179 198.536L4.65081 198.105L9.64007 195.22C9.69683 195.187 9.75525 195.163 9.81292 195.144L28.9252 184.181L29.0903 184.095C29.873 183.729 30.8004 183.852 31.4604 184.41L31.5971 184.537L36.561 189.5L55.0405 178.967L53.2446 175.949C52.8928 175.358 53.3185 174.609 54.0063 174.608L65.3989 174.596Z" fill="#002B7F"/>
<path d="M135.873 145.125C136.557 145.125 136.984 145.865 136.642 146.457L131.026 156.173C130.687 156.759 129.842 156.765 129.495 156.183L127.684 153.14L107.796 164.476C106.982 164.94 105.971 164.84 105.266 164.244L105.129 164.118L100.167 159.156L79.6615 170.919C79.642 170.933 79.6245 170.95 79.6038 170.962L73.762 174.441C73.411 174.65 72.9627 174.592 72.6761 174.301L70.8138 172.41C70.4071 171.996 70.5001 171.31 71.0023 171.02L74.3773 169.067L74.3763 169.065L75.1253 168.634L80.1146 165.75C80.1713 165.717 80.2298 165.693 80.2874 165.673L99.3997 154.71L99.5648 154.625C100.348 154.258 101.275 154.381 101.935 154.939L102.072 155.066L107.035 160.03L125.515 149.497L123.719 146.478C123.367 145.887 123.793 145.138 124.481 145.137L135.873 145.125Z" fill="#002B7F"/>
<path d="M206.348 115.654C207.031 115.653 207.459 116.393 207.117 116.985L201.501 126.702C201.161 127.288 200.317 127.293 199.97 126.711L198.159 123.668L178.271 135.004C177.457 135.468 176.446 135.369 175.741 134.772L175.604 134.646L170.642 129.684L150.139 141.446C150.119 141.46 150.1 141.478 150.079 141.491L144.237 144.969C143.886 145.178 143.438 145.121 143.151 144.83L141.289 142.939C140.882 142.525 140.975 141.839 141.477 141.548L144.852 139.595L144.851 139.593L145.6 139.163L150.589 136.278C150.646 136.245 150.705 136.221 150.762 136.202L169.875 125.239L170.04 125.153C170.822 124.787 171.75 124.91 172.41 125.467L172.546 125.594L177.51 130.558L195.99 120.025L194.194 117.006C193.842 116.415 194.268 115.666 194.956 115.666L206.348 115.654Z" fill="#002B7F"/>
<path d="M276.822 86.1826C277.506 86.1823 277.933 86.922 277.591 87.5137L271.975 97.2305C271.636 97.8166 270.791 97.822 270.444 97.2402L268.633 94.1973L248.745 105.533C247.931 105.997 246.92 105.897 246.215 105.301L246.078 105.175L241.116 100.213L220.61 111.977C220.591 111.99 220.573 112.007 220.553 112.02L214.711 115.498C214.36 115.707 213.912 115.65 213.625 115.358L211.763 113.467C211.356 113.053 211.449 112.368 211.951 112.077L215.326 110.124L215.325 110.122L216.074 109.691L221.064 106.807C221.12 106.774 221.179 106.75 221.236 106.73L240.349 95.7676L240.514 95.6816C241.297 95.3156 242.224 95.4383 242.884 95.9961L243.021 96.123L247.984 101.087L266.464 90.5537L264.668 87.5352C264.316 86.9441 264.742 86.194 265.43 86.1934L276.822 86.1826Z" fill="#002B7F"/>
<path d="M347.297 56.7114C347.981 56.711 348.408 57.4508 348.066 58.0425L342.45 67.7593C342.11 68.3457 341.266 68.3511 340.919 67.769L339.108 64.7261L319.22 76.062C318.406 76.5258 317.395 76.4261 316.69 75.8296L316.553 75.7036L311.591 70.7417L291.088 82.5034C291.068 82.518 291.049 82.5354 291.028 82.5483L285.186 86.0269C284.835 86.2359 284.387 86.1784 284.1 85.8872L282.238 83.9966C281.831 83.5831 281.924 82.8964 282.426 82.606L285.801 80.6528L285.8 80.6509L286.549 80.2202L291.538 77.3354C291.595 77.3026 291.654 77.2786 291.711 77.2593L310.824 66.2964L310.989 66.2104C311.771 65.8444 312.699 65.9672 313.359 66.5249L313.495 66.6519L318.459 71.6157L336.939 61.0825L335.143 58.064C334.791 57.4729 335.217 56.7238 335.905 56.7231L347.297 56.7114Z" fill="#002B7F"/>
<path d="M417.772 27.2402C418.455 27.2398 418.882 27.9796 418.54 28.5713L412.924 38.2881C412.585 38.8742 411.74 38.8796 411.394 38.2979L409.582 35.2549L389.696 46.5908C388.882 47.0547 387.871 46.9548 387.165 46.3584L387.029 46.2324L382.067 41.2705L361.556 53.0371C361.538 53.0499 361.521 53.0657 361.502 53.0771L355.66 56.5557C355.309 56.7646 354.861 56.7071 354.574 56.416L352.712 54.5244C352.305 54.1109 352.399 53.4252 352.901 53.1348L356.277 51.1816L356.276 51.1797L356.906 50.8174L362.013 47.8643C362.07 47.8311 362.129 47.8065 362.188 47.7871L381.299 36.8252L381.464 36.7393C382.247 36.3734 383.174 36.4958 383.834 37.0537L383.971 37.1807L388.935 42.1445L407.414 31.6113L405.617 28.5928C405.266 28.0017 405.691 27.2517 406.379 27.251L417.772 27.2402Z" fill="#002B7F"/>
<path d="M48.3139 208.766C48.9972 208.766 49.4244 209.505 49.0825 210.097L43.4662 219.814C43.1271 220.4 42.2825 220.406 41.936 219.824L40.1244 216.781L20.2368 228.117C19.4228 228.58 18.4118 228.481 17.7065 227.884L17.5698 227.758L12.6078 222.796L-7.89801 234.56C-7.91748 234.574 -7.93498 234.591 -7.95563 234.603L-13.7974 238.082C-14.1484 238.29 -14.5968 238.233 -14.8834 237.942L-16.7457 236.05C-17.1526 235.637 -17.0594 234.95 -16.5572 234.66L-13.1822 232.708L-13.1832 232.706L-12.5494 232.341L-7.44489 229.39C-7.3882 229.357 -7.32964 229.333 -7.27204 229.314L11.8403 218.351L12.0053 218.265C12.788 217.899 13.7154 218.022 14.3754 218.58L14.5121 218.707L19.476 223.67L37.9555 213.137L36.1596 210.119C35.8078 209.528 36.2335 208.779 36.9213 208.778L48.3139 208.766Z" fill="#002B7F"/>
<path d="M118.789 179.295C119.472 179.295 119.899 180.035 119.557 180.626L113.941 190.343C113.602 190.929 112.757 190.935 112.411 190.353L110.599 187.31L90.7116 198.646C89.8976 199.11 88.8866 199.01 88.1813 198.414L88.0446 198.288L83.0827 193.326L62.5729 205.091C62.5547 205.104 62.5384 205.12 62.5192 205.131L56.6774 208.611C56.3265 208.82 55.878 208.762 55.5914 208.471L53.7291 206.58C53.3221 206.166 53.4153 205.479 53.9176 205.189L57.2926 203.236L57.2916 203.235L57.8346 202.922L63.0299 199.918C63.087 199.885 63.1458 199.862 63.2038 199.842L82.3151 188.88L82.4801 188.794C83.2629 188.428 84.1902 188.551 84.8502 189.109L84.987 189.236L89.9508 194.2L108.43 183.667L106.634 180.648C106.283 180.057 106.708 179.307 107.396 179.306L118.789 179.295Z" fill="#002B7F"/>
<path d="M189.263 149.824C189.947 149.823 190.374 150.563 190.032 151.155L184.416 160.872C184.076 161.458 183.232 161.463 182.885 160.881L181.074 157.838L161.186 169.174C160.372 169.638 159.361 169.538 158.656 168.942L158.519 168.816L153.557 163.854L133.051 175.618C133.032 175.632 133.014 175.648 132.994 175.661L127.152 179.139C126.801 179.348 126.353 179.291 126.066 179L124.204 177.108C123.797 176.694 123.89 176.008 124.392 175.717L127.767 173.765L127.766 173.763L128.4 173.399L133.504 170.448C133.561 170.415 133.62 170.391 133.677 170.372L152.79 159.409L152.955 159.323C153.737 158.957 154.665 159.08 155.325 159.637L155.461 159.764L160.425 164.728L178.905 154.195L177.109 151.176C176.757 150.585 177.183 149.836 177.871 149.835L189.263 149.824Z" fill="#002B7F"/>
<path d="M259.738 120.352C260.421 120.352 260.848 121.091 260.506 121.683L254.89 131.4C254.551 131.986 253.706 131.992 253.36 131.41L251.548 128.367L231.661 139.703C230.847 140.166 229.836 140.067 229.13 139.47L228.994 139.344L224.032 134.382L203.529 146.144C203.508 146.159 203.49 146.176 203.468 146.189L197.627 149.667C197.275 149.877 196.827 149.819 196.541 149.528L194.678 147.637C194.271 147.224 194.364 146.537 194.867 146.247L198.242 144.293L198.241 144.292L198.99 143.861L203.979 140.976C204.036 140.943 204.094 140.919 204.152 140.9L223.264 129.937L223.429 129.851C224.212 129.485 225.139 129.608 225.799 130.166L225.936 130.292L230.9 135.256L249.379 124.723L247.584 121.705C247.232 121.114 247.657 120.364 248.345 120.364L259.738 120.352Z" fill="#002B7F"/>
<path d="M330.212 90.8813C330.896 90.881 331.323 91.6207 330.981 92.2124L325.365 101.929C325.026 102.516 324.181 102.521 323.834 101.939L322.023 98.896L302.135 110.232C301.321 110.696 300.31 110.596 299.605 110L299.468 109.874L294.506 104.912L274 116.675C273.981 116.689 273.963 116.706 273.943 116.718L268.101 120.197C267.75 120.406 267.302 120.348 267.015 120.057L265.153 118.166C264.746 117.752 264.839 117.065 265.341 116.775L268.716 114.823L268.715 114.821L269.349 114.457L274.454 111.505C274.511 111.472 274.569 111.448 274.627 111.428L293.739 100.466L293.904 100.38C294.687 100.014 295.614 100.137 296.274 100.695L296.411 100.822L301.374 105.786L319.854 95.2524L318.058 92.2339C317.706 91.6428 318.132 90.8938 318.82 90.8931L330.212 90.8813Z" fill="#002B7F"/>
<path d="M400.687 61.4097C401.37 61.4093 401.798 62.149 401.456 62.7407L395.839 72.4575C395.5 73.0439 394.656 73.0493 394.309 72.4673L392.498 69.4243L372.61 80.7603C371.796 81.2241 370.785 81.1244 370.08 80.5278L369.943 80.4019L364.981 75.4399L344.478 87.2017C344.458 87.2163 344.439 87.2337 344.418 87.2466L338.576 90.7251C338.225 90.9342 337.776 90.8766 337.49 90.5854L335.627 88.6948C335.22 88.2813 335.314 87.5947 335.816 87.3042L339.191 85.3511L339.19 85.3491L339.939 84.9185L344.928 82.0337C344.985 82.0009 345.043 81.9768 345.101 81.9575L364.213 70.9946L364.378 70.9087C365.161 70.5426 366.089 70.6654 366.749 71.2231L366.885 71.3501L371.849 76.314L390.329 65.7808L388.533 62.7622C388.181 62.1711 388.607 61.4221 389.294 61.4214L400.687 61.4097Z" fill="#002B7F"/>
<path d="M31.2292 242.935C31.9125 242.935 32.3397 243.674 31.9977 244.266L26.3815 253.983C26.0424 254.569 25.1978 254.575 24.8513 253.993L23.0397 250.95L3.15203 262.286C2.33811 262.749 1.32708 262.65 0.621761 262.053L0.485042 261.927L-4.47687 256.965L-24.9798 268.727C-25.0002 268.742 -25.0187 268.759 -25.0403 268.772L-30.8821 272.25C-31.2332 272.46 -31.6814 272.402 -31.9681 272.111L-33.8304 270.22C-34.2375 269.807 -34.1442 269.12 -33.6419 268.83L-30.2669 266.876L-30.2679 266.875L-29.5189 266.444L-24.5296 263.559C-24.4729 263.526 -24.4144 263.502 -24.3568 263.483L-5.24445 252.52L-5.07941 252.434C-4.29666 252.068 -3.36932 252.191 -2.70929 252.749L-2.57258 252.875L2.39129 257.839L20.8708 247.306L19.0749 244.288C18.7231 243.697 19.1488 242.947 19.8366 242.947L31.2292 242.935Z" fill="#002B7F"/>
<path d="M101.704 213.464C102.387 213.464 102.814 214.204 102.472 214.795L96.8562 224.512C96.5171 225.099 95.6725 225.104 95.3259 224.522L93.5144 221.479L73.6267 232.815C72.8128 233.279 71.8018 233.179 71.0964 232.583L70.9597 232.457L65.9978 227.495L45.4949 239.256C45.4745 239.271 45.456 239.288 45.4343 239.301L39.5925 242.78C39.2415 242.989 38.7933 242.931 38.5066 242.64L36.6443 240.75C36.2372 240.336 36.3304 239.649 36.8328 239.359L40.2078 237.406L40.2068 237.404L40.9558 236.973L45.9451 234.088C46.0018 234.056 46.0603 234.032 46.1179 234.012L65.2302 223.049L65.3953 222.963C66.178 222.597 67.1054 222.72 67.7654 223.278L67.9021 223.405L72.866 228.369L91.3455 217.835L89.5496 214.817C89.1978 214.226 89.6234 213.477 90.3113 213.476L101.704 213.464Z" fill="#002B7F"/>
<path d="M172.179 183.993C172.862 183.993 173.289 184.733 172.947 185.324L167.331 195.041C166.992 195.627 166.147 195.633 165.801 195.051L163.989 192.008L144.101 203.344C143.287 203.808 142.276 203.708 141.571 203.111L141.434 202.985L136.472 198.023L115.97 209.785C115.949 209.8 115.931 209.817 115.909 209.83L110.067 213.309C109.716 213.518 109.268 213.46 108.981 213.169L107.119 211.278C106.712 210.865 106.805 210.178 107.307 209.888L110.682 207.935L110.681 207.933L111.43 207.502L116.42 204.617C116.476 204.584 116.535 204.56 116.593 204.541L135.705 193.578L135.87 193.492C136.653 193.126 137.58 193.249 138.24 193.807L138.377 193.934L143.341 198.897L161.82 188.364L160.024 185.346C159.672 184.755 160.098 184.006 160.786 184.005L172.179 183.993Z" fill="#002B7F"/>
<path d="M242.653 154.521C243.336 154.521 243.763 155.261 243.422 155.853L237.805 165.569C237.466 166.156 236.622 166.161 236.275 165.579L234.465 162.537L214.576 173.873C213.762 174.337 212.751 174.237 212.046 173.641L211.909 173.515L206.947 168.553L186.437 180.318C186.419 180.331 186.403 180.347 186.384 180.358L180.542 183.838C180.191 184.047 179.742 183.988 179.456 183.697L177.594 181.807C177.186 181.393 177.28 180.706 177.782 180.416L181.157 178.463L181.156 178.462L181.699 178.149L186.894 175.146C186.952 175.112 187.012 175.088 187.071 175.068L206.179 164.107L206.345 164.021C207.127 163.655 208.055 163.778 208.715 164.336L208.851 164.463L213.815 169.427L232.296 158.893L230.499 155.874C230.147 155.283 230.573 154.534 231.261 154.533L242.653 154.521Z" fill="#002B7F"/>
<path d="M313.128 125.051C313.811 125.05 314.238 125.79 313.896 126.382L308.28 136.099C307.941 136.685 307.096 136.69 306.75 136.108L304.938 133.065L285.05 144.401C284.237 144.865 283.226 144.765 282.52 144.169L282.383 144.043L277.422 139.081L256.919 150.843C256.898 150.857 256.88 150.875 256.858 150.888L251.016 154.366C250.665 154.575 250.217 154.518 249.93 154.227L248.068 152.336C247.661 151.922 247.754 151.236 248.257 150.945L251.632 148.992L251.631 148.99L252.38 148.56L257.369 145.675C257.426 145.642 257.484 145.618 257.542 145.599L276.654 134.636L276.819 134.55C277.602 134.184 278.529 134.307 279.189 134.864L279.326 134.991L284.29 139.955L302.769 129.422L300.973 126.403C300.622 125.812 301.047 125.063 301.735 125.063L313.128 125.051Z" fill="#002B7F"/>
<path d="M383.602 95.5791C384.285 95.5787 384.712 96.3185 384.371 96.9102L378.754 106.627C378.415 107.213 377.571 107.219 377.224 106.637L375.414 103.595L355.525 114.931C354.711 115.394 353.7 115.295 352.995 114.698L352.858 114.572L347.896 109.61L327.39 121.374C327.371 121.388 327.353 121.405 327.332 121.417L321.491 124.896C321.14 125.104 320.691 125.047 320.405 124.756L318.542 122.864C318.136 122.451 318.229 121.765 318.731 121.475L322.106 119.521L322.105 119.52L322.854 119.089L327.843 116.204C327.9 116.171 327.958 116.147 328.016 116.128L347.128 105.165L347.293 105.079C348.076 104.713 349.004 104.836 349.664 105.394L349.8 105.521L354.764 110.484L373.245 99.9502L371.448 96.9316C371.096 96.3406 371.522 95.5915 372.209 95.5908L383.602 95.5791Z" fill="#002B7F"/>
<path d="M454.077 66.1079C454.76 66.1075 455.187 66.8473 454.845 67.439L449.229 77.1558C448.89 77.742 448.046 77.7474 447.699 77.1655L445.888 74.1235L426 85.4595C425.186 85.9231 424.175 85.8236 423.469 85.2271L423.333 85.1011L418.371 80.1392L397.865 91.9028C397.845 91.9167 397.828 91.9335 397.807 91.9458L391.966 95.4243C391.615 95.6332 391.166 95.5757 390.88 95.2847L389.017 93.3931C388.61 92.9796 388.704 92.2929 389.206 92.0024L392.581 90.0503L392.58 90.0483L393.214 89.6841L398.318 86.7329C398.375 86.7001 398.433 86.676 398.491 86.6567L417.603 75.6938L417.768 75.6079C418.551 75.2418 419.478 75.3645 420.138 75.9224L420.275 76.0493L425.239 81.0132L443.719 70.479L441.923 67.4604C441.571 66.8694 441.996 66.1203 442.684 66.1196L454.077 66.1079Z" fill="#002B7F"/>
<path d="M14.1447 277.105C14.828 277.105 15.2552 277.845 14.9133 278.437L9.29705 288.153C8.95792 288.74 8.11336 288.745 7.76678 288.163L5.95526 285.12L-13.9324 296.456C-14.7464 296.92 -15.7574 296.82 -16.4627 296.224L-16.5994 296.098L-21.5613 291.136L-42.0643 302.897C-42.0846 302.912 -42.1031 302.929 -42.1248 302.942L-47.9666 306.421C-48.3177 306.63 -48.7659 306.572 -49.0526 306.281L-50.9149 304.391C-51.322 303.977 -51.2287 303.29 -50.7264 303L-47.3514 301.047L-47.3524 301.045L-46.6033 300.614L-41.6141 297.729C-41.5573 297.697 -41.4989 297.673 -41.4412 297.653L-22.3289 286.69L-22.1639 286.604C-21.3811 286.238 -20.4538 286.361 -19.7938 286.919L-19.657 287.046L-14.6932 292.01L3.78631 281.477L1.99041 278.458C1.63862 277.867 2.0643 277.118 2.75213 277.117L14.1447 277.105Z" fill="#002B7F"/>
<path d="M84.6194 247.634C85.3027 247.633 85.7297 248.373 85.388 248.965L79.7718 258.682C79.4327 259.268 78.588 259.274 78.2415 258.691L76.43 255.648L56.5423 266.984C55.7283 267.448 54.7173 267.349 54.012 266.752L53.8753 266.626L48.9134 261.664L28.4104 273.426C28.3901 273.44 28.3716 273.458 28.3499 273.471L22.5081 276.95C22.1571 277.159 21.7087 277.101 21.4222 276.81L19.5599 274.919C19.1528 274.505 19.246 273.819 19.7483 273.528L23.1233 271.575L23.1224 271.573L23.8714 271.143L28.8606 268.258C28.9174 268.225 28.9758 268.201 29.0335 268.182L48.1458 257.219L48.3108 257.133C49.0935 256.767 50.0209 256.89 50.6809 257.447L50.8177 257.574L55.7815 262.538L74.261 252.005L72.4651 248.986C72.1134 248.395 72.539 247.646 73.2268 247.646L84.6194 247.634Z" fill="#002B7F"/>
<path d="M155.094 218.163C155.777 218.162 156.205 218.902 155.863 219.494L150.247 229.21C149.907 229.797 149.063 229.802 148.716 229.22L146.905 226.177L127.017 237.513C126.203 237.977 125.192 237.877 124.487 237.281L124.35 237.155L119.388 232.193L98.8852 243.955C98.8648 243.969 98.8463 243.987 98.8246 244L92.9828 247.478C92.6318 247.687 92.1836 247.63 91.8969 247.338L90.0346 245.448C89.6275 245.034 89.7208 244.348 90.2231 244.057L93.5981 242.104L93.5971 242.102L94.3461 241.671L99.3354 238.787C99.3925 238.754 99.4512 238.729 99.5092 238.709L118.621 227.748L118.786 227.662C119.568 227.296 120.496 227.418 121.156 227.976L121.292 228.103L126.256 233.067L144.736 222.534L142.94 219.515C142.588 218.924 143.014 218.175 143.702 218.174L155.094 218.163Z" fill="#002B7F"/>
<path d="M225.569 188.691C226.252 188.691 226.679 189.431 226.337 190.022L220.721 199.739C220.382 200.326 219.537 200.331 219.191 199.749L217.379 196.706L197.492 208.042C196.678 208.506 195.667 208.406 194.961 207.81L194.825 207.684L189.863 202.722L169.36 214.483C169.339 214.498 169.321 214.515 169.299 214.528L163.457 218.008C163.106 218.217 162.658 218.158 162.371 217.867L160.509 215.977C160.102 215.563 160.195 214.876 160.698 214.586L164.073 212.633L164.072 212.631L164.821 212.2L169.81 209.315C169.867 209.283 169.925 209.259 169.983 209.239L189.095 198.276L189.26 198.19C190.043 197.824 190.97 197.947 191.63 198.505L191.767 198.632L196.731 203.596L215.21 193.063L213.414 190.044C213.063 189.453 213.488 188.704 214.176 188.703L225.569 188.691Z" fill="#002B7F"/>
<path d="M296.043 159.22C296.727 159.22 297.154 159.96 296.812 160.551L291.196 170.268C290.856 170.854 290.012 170.86 289.665 170.278L287.854 167.235L267.966 178.571C267.152 179.035 266.141 178.935 265.436 178.338L265.299 178.212L260.337 173.25L239.834 185.012C239.814 185.027 239.795 185.044 239.774 185.057L233.932 188.536C233.581 188.745 233.133 188.687 232.846 188.396L230.984 186.505C230.577 186.092 230.67 185.405 231.172 185.115L234.547 183.162L234.546 183.16L235.295 182.729L240.284 179.844C240.341 179.811 240.4 179.787 240.457 179.768L259.57 168.805L259.735 168.719C260.517 168.353 261.445 168.476 262.105 169.034L262.241 169.161L267.205 174.125L285.685 163.591L283.889 160.573C283.537 159.982 283.963 159.233 284.651 159.232L296.043 159.22Z" fill="#002B7F"/>
<path d="M366.518 129.749C367.201 129.749 367.628 130.488 367.286 131.08L361.67 140.797C361.331 141.383 360.486 141.389 360.14 140.807L358.328 137.764L338.441 149.1C337.627 149.563 336.616 149.464 335.91 148.867L335.774 148.741L330.812 143.779L310.309 155.541C310.288 155.556 310.27 155.573 310.248 155.586L304.406 159.065C304.055 159.274 303.607 159.216 303.321 158.925L301.458 157.034C301.051 156.621 301.144 155.934 301.647 155.644L305.022 153.69L305.021 153.688L305.77 153.258L310.759 150.373C310.816 150.34 310.874 150.316 310.932 150.297L330.044 139.334L330.209 139.248C330.992 138.882 331.919 139.005 332.579 139.563L332.716 139.689L337.68 144.653L356.159 134.12L354.364 131.102C354.012 130.511 354.437 129.761 355.125 129.761L366.518 129.749Z" fill="#002B7F"/>
<path d="M436.992 100.278C437.676 100.278 438.103 101.018 437.761 101.609L432.145 111.326C431.806 111.912 430.961 111.918 430.614 111.336L428.803 108.293L408.916 119.629C408.102 120.093 407.091 119.993 406.386 119.396L406.249 119.271L401.287 114.309L380.779 126.073C380.76 126.087 380.743 126.103 380.723 126.115L374.881 129.594C374.53 129.803 374.082 129.745 373.795 129.454L371.933 127.563C371.526 127.15 371.619 126.463 372.121 126.173L375.497 124.22L375.496 124.218L376.126 123.855L381.234 120.902C381.291 120.869 381.35 120.845 381.408 120.825L400.52 109.863L400.685 109.777C401.468 109.411 402.395 109.534 403.055 110.092L403.192 110.219L408.155 115.183L426.635 104.649L424.838 101.631C424.486 101.04 424.912 100.291 425.6 100.29L436.992 100.278Z" fill="#002B7F"/>
<path d="M67.5344 281.805C68.2176 281.804 68.6448 282.544 68.3029 283.136L62.6867 292.853C62.3476 293.439 61.503 293.444 61.1564 292.862L59.3449 289.819L39.4572 301.155C38.6433 301.619 37.6323 301.519 36.9269 300.923L36.7902 300.797L31.8283 295.835L11.3225 307.599C11.303 307.612 11.2855 307.629 11.2648 307.642L5.42304 311.12C5.07205 311.329 4.62371 311.271 4.3371 310.98L2.4748 309.089C2.06789 308.675 2.16104 307.989 2.66327 307.698L6.03827 305.746L6.0373 305.744L6.67109 305.38L11.7756 302.429C11.8323 302.396 11.8908 302.372 11.9484 302.353L31.0607 291.39L31.2258 291.304C32.0085 290.938 32.9359 291.06 33.5959 291.618L33.7326 291.745L38.6965 296.709L57.176 286.176L55.3801 283.157C55.0283 282.566 55.454 281.817 56.1418 281.816L67.5344 281.805Z" fill="#002B7F"/>
<path d="M138.009 252.332C138.692 252.331 139.12 253.071 138.778 253.663L133.161 263.379C132.822 263.966 131.978 263.971 131.631 263.389L129.819 260.346L109.932 271.682C109.118 272.146 108.107 272.046 107.402 271.45L107.265 271.324L102.303 266.362L81.797 278.125C81.7776 278.139 81.7601 278.156 81.7394 278.168L75.8976 281.647C75.5466 281.856 75.0983 281.798 74.8117 281.507L72.9494 279.616C72.5426 279.202 72.6357 278.516 73.1379 278.226L76.5129 276.273L76.5119 276.271L77.2609 275.84L82.2502 272.956C82.3069 272.923 82.3654 272.899 82.423 272.879L101.535 261.917L101.7 261.831C102.483 261.464 103.41 261.587 104.07 262.145L104.207 262.272L109.171 267.236L127.651 256.703L125.855 253.684C125.503 253.093 125.929 252.343 126.616 252.342L138.009 252.332Z" fill="#002B7F"/>
<path d="M208.484 222.861C209.167 222.861 209.594 223.601 209.252 224.192L203.636 233.909C203.297 234.496 202.452 234.501 202.106 233.919L200.295 230.877L180.407 242.213C179.593 242.677 178.582 242.577 177.876 241.98L177.74 241.854L172.778 236.893L152.272 248.656C152.252 248.67 152.235 248.687 152.214 248.699L146.372 252.178C146.021 252.387 145.573 252.329 145.287 252.038L143.424 250.146C143.017 249.733 143.11 249.046 143.613 248.756L146.988 246.804L146.987 246.802L147.62 246.438L152.725 243.486C152.782 243.454 152.84 243.429 152.898 243.41L172.01 232.447L172.175 232.361C172.958 231.995 173.885 232.118 174.545 232.676L174.682 232.803L179.646 237.767L198.126 227.232L196.329 224.214C195.978 223.623 196.403 222.874 197.091 222.873L208.484 222.861Z" fill="#002B7F"/>
<path d="M278.959 193.391C279.642 193.39 280.069 194.13 279.727 194.722L274.111 204.438C273.772 205.025 272.927 205.03 272.581 204.448L270.77 201.406L250.882 212.742C250.068 213.206 249.057 213.106 248.351 212.51L248.215 212.384L243.253 207.422L222.743 219.188C222.725 219.2 222.708 219.216 222.689 219.228L216.847 222.706C216.496 222.915 216.048 222.858 215.761 222.566L213.899 220.676C213.492 220.262 213.585 219.576 214.088 219.285L217.463 217.332L217.462 217.331L218.005 217.019L223.2 214.015C223.258 213.981 223.318 213.957 223.377 213.938L242.485 202.977L242.65 202.891C243.433 202.525 244.36 202.647 245.02 203.205L245.157 203.332L250.121 208.296L268.601 197.762L266.804 194.743C266.453 194.152 266.878 193.403 267.566 193.402L278.959 193.391Z" fill="#002B7F"/>
<path d="M349.433 163.919C350.116 163.919 350.543 164.658 350.201 165.25L344.585 174.967C344.246 175.553 343.401 175.559 343.055 174.977L341.244 171.935L321.356 183.271C320.542 183.734 319.531 183.635 318.825 183.038L318.689 182.912L313.727 177.95L293.221 189.714C293.201 189.728 293.184 189.745 293.163 189.757L287.321 193.235C286.97 193.444 286.522 193.387 286.235 193.096L284.373 191.204C283.966 190.791 284.059 190.104 284.562 189.813L287.937 187.861L287.936 187.859L288.569 187.495L293.674 184.544C293.731 184.511 293.789 184.487 293.847 184.468L312.959 173.505L313.124 173.419C313.907 173.053 314.834 173.176 315.494 173.733L315.631 173.86L320.595 178.824L339.075 168.29L337.278 165.271C336.927 164.68 337.352 163.931 338.04 163.931L349.433 163.919Z" fill="#002B7F"/>
<path d="M419.907 134.448C420.591 134.447 421.018 135.187 420.676 135.779L415.06 145.496C414.721 146.082 413.876 146.087 413.53 145.505L411.719 142.463L391.83 153.799C391.016 154.263 390.005 154.163 389.3 153.567L389.163 153.441L384.201 148.479L363.696 160.243C363.676 160.257 363.659 160.273 363.638 160.286L357.796 163.764C357.445 163.973 356.997 163.915 356.71 163.625L354.848 161.733C354.441 161.319 354.534 160.633 355.036 160.342L358.411 158.39L358.41 158.388L359.044 158.024L364.149 155.073C364.205 155.04 364.264 155.016 364.322 154.997L383.434 144.034L383.599 143.948C384.382 143.582 385.309 143.704 385.969 144.262L386.106 144.389L391.07 149.353L409.55 138.819L407.753 135.8C407.401 135.209 407.827 134.46 408.515 134.459L419.907 134.448Z" fill="#002B7F"/>
<path d="M50.4495 315.973C51.1328 315.972 51.5599 316.712 51.218 317.304L45.6018 327.021C45.2627 327.607 44.4181 327.612 44.0716 327.03L42.26 323.987L22.3723 335.323C21.5584 335.787 20.5474 335.687 19.8421 335.091L19.7053 334.965L14.7434 330.003L-5.75559 341.764C-5.77705 341.779 -5.79712 341.797 -5.82004 341.811L-11.6618 345.289C-12.0129 345.498 -12.4612 345.44 -12.7478 345.149L-14.6101 343.258C-15.0169 342.844 -14.9238 342.158 -14.4216 341.867L-11.0466 339.915L-11.0476 339.912L-10.2038 339.427L-5.3093 336.598C-5.25357 336.565 -5.19601 336.542 -5.13938 336.522L13.9759 325.558L14.1409 325.472C14.9236 325.106 15.851 325.228 16.511 325.786L16.6477 325.913L21.6116 330.877L40.0911 320.344L38.2952 317.325C37.9434 316.734 38.3691 315.985 39.0569 315.984L50.4495 315.973Z" fill="#002B7F"/>
<path d="M120.924 286.501C121.608 286.501 122.035 287.241 121.693 287.833L116.077 297.549C115.738 298.135 114.893 298.141 114.546 297.559L112.735 294.516L92.8473 305.852C92.0334 306.316 91.0223 306.216 90.317 305.62L90.1803 305.494L85.2184 300.532L64.7154 312.293C64.6951 312.308 64.6766 312.325 64.6549 312.338L58.8131 315.818C58.4621 316.027 58.0137 315.969 57.7272 315.678L55.8649 313.787C55.4579 313.373 55.5511 312.686 56.0533 312.396L59.4283 310.444L59.4274 310.441L60.2711 309.956L65.1656 307.126C65.2217 307.094 65.2795 307.07 65.3365 307.05L84.4508 296.086L84.6158 296C85.3986 295.634 86.3259 295.757 86.9859 296.315L87.1227 296.442L92.0865 301.406L110.566 290.873L108.77 287.854C108.418 287.263 108.844 286.513 109.532 286.512L120.924 286.501Z" fill="#002B7F"/>
<path d="M191.399 257.03C192.082 257.03 192.51 257.77 192.168 258.361L186.551 268.078C186.212 268.665 185.368 268.67 185.021 268.088L183.21 265.045L163.322 276.381C162.508 276.845 161.497 276.745 160.792 276.148L160.655 276.022L155.693 271.061L135.19 282.822C135.17 282.837 135.151 282.854 135.13 282.867L129.288 286.346C128.937 286.555 128.489 286.497 128.202 286.206L126.34 284.315C125.932 283.902 126.026 283.215 126.528 282.925L129.903 280.972L129.902 280.97L130.651 280.539L135.64 277.654C135.697 277.621 135.755 277.597 135.813 277.578L154.925 266.615L155.091 266.529C155.873 266.163 156.801 266.286 157.461 266.844L157.597 266.971L162.561 271.935L181.041 261.401L179.245 258.383C178.893 257.792 179.319 257.043 180.007 257.042L191.399 257.03Z" fill="#002B7F"/>
<path d="M261.873 227.56C262.557 227.559 262.984 228.299 262.642 228.891L257.026 238.607C256.687 239.194 255.842 239.199 255.496 238.617L253.684 235.574L233.796 246.91C232.982 247.374 231.971 247.274 231.266 246.678L231.129 246.552L226.167 241.59L205.662 253.354C205.642 253.367 205.625 253.384 205.604 253.396L199.762 256.875C199.411 257.084 198.963 257.026 198.676 256.735L196.814 254.844C196.407 254.43 196.5 253.745 197.002 253.454L200.377 251.501L200.376 251.499L201.125 251.068L206.115 248.184C206.171 248.151 206.23 248.127 206.288 248.107L225.4 237.145L225.565 237.059C226.348 236.693 227.275 236.815 227.935 237.373L228.072 237.5L233.036 242.464L251.515 231.931L249.719 228.912C249.367 228.321 249.793 227.572 250.481 227.571L261.873 227.56Z" fill="#002B7F"/>
<path d="M332.348 198.088C333.032 198.088 333.459 198.827 333.117 199.419L327.501 209.136C327.162 209.722 326.317 209.728 325.971 209.146L324.159 206.103L304.271 217.438C303.457 217.902 302.446 217.803 301.741 217.206L301.604 217.08L296.642 212.118L276.139 223.88C276.119 223.895 276.101 223.912 276.079 223.925L270.237 227.403C269.886 227.612 269.438 227.555 269.151 227.264L267.289 225.373C266.882 224.96 266.975 224.273 267.477 223.982L270.852 222.029L270.851 222.027L271.6 221.597L276.59 218.712C276.646 218.679 276.705 218.655 276.763 218.636L295.875 207.673L296.04 207.587C296.823 207.221 297.75 207.344 298.41 207.901L298.547 208.028L303.511 212.992L321.99 202.459L320.194 199.44C319.842 198.849 320.268 198.1 320.956 198.1L332.348 198.088Z" fill="#002B7F"/>
<path d="M402.823 168.617C403.506 168.616 403.933 169.356 403.591 169.948L397.975 179.665C397.636 180.251 396.791 180.256 396.445 179.674L394.633 176.631L374.746 187.967C373.933 188.431 372.921 188.331 372.216 187.735L372.079 187.609L367.117 182.647L346.61 194.412C346.591 194.425 346.573 194.442 346.553 194.454L340.711 197.933C340.36 198.142 339.912 198.084 339.625 197.793L337.763 195.902C337.356 195.488 337.449 194.802 337.951 194.511L341.327 192.558L341.326 192.556L342.049 192.141L347.064 189.242C347.12 189.209 347.179 189.185 347.237 189.166L366.35 178.202L366.515 178.116C367.298 177.75 368.225 177.872 368.885 178.43L369.022 178.557L373.986 183.521L392.465 172.988L390.668 169.969C390.316 169.378 390.742 168.628 391.43 168.627L402.823 168.617Z" fill="#002B7F"/>
<path d="M174.314 291.199C174.997 291.199 175.425 291.939 175.083 292.53L169.466 302.247C169.127 302.833 168.283 302.839 167.936 302.257L166.125 299.214L146.237 310.55C145.423 311.014 144.412 310.914 143.707 310.317L143.57 310.191L138.608 305.229L118.102 316.993C118.083 317.007 118.065 317.024 118.045 317.036L112.203 320.515C111.852 320.723 111.403 320.666 111.117 320.375L109.254 318.483C108.848 318.07 108.941 317.383 109.443 317.093L112.818 315.141L112.817 315.139L113.451 314.774L118.555 311.823C118.612 311.79 118.671 311.766 118.728 311.747L137.84 300.784L138.005 300.698C138.788 300.332 139.716 300.455 140.376 301.013L140.512 301.14L145.476 306.104L163.956 295.57L162.16 292.552C161.808 291.961 162.234 291.212 162.921 291.211L174.314 291.199Z" fill="#002B7F"/>
<path d="M244.789 261.728C245.472 261.727 245.899 262.467 245.557 263.059L239.941 272.775C239.602 273.362 238.757 273.367 238.411 272.785L236.599 269.742L216.712 281.078C215.898 281.542 214.887 281.442 214.181 280.846L214.045 280.72L209.083 275.758L188.58 287.52C188.559 287.534 188.541 287.552 188.519 287.564L182.678 291.044C182.327 291.253 181.878 291.194 181.592 290.903L179.729 289.013C179.322 288.599 179.415 287.913 179.918 287.622L183.293 285.669L183.292 285.667L184.041 285.236L189.03 282.352C189.087 282.319 189.145 282.295 189.203 282.275L208.315 271.313L208.48 271.227C209.263 270.861 210.19 270.983 210.85 271.541L210.987 271.668L215.951 276.632L234.43 266.099L232.635 263.08C232.283 262.489 232.708 261.74 233.396 261.739L244.789 261.728Z" fill="#002B7F"/>
<path d="M315.264 232.256C315.947 232.256 316.374 232.996 316.032 233.587L310.416 243.304C310.077 243.89 309.232 243.896 308.886 243.314L307.074 240.271L287.186 251.607C286.373 252.071 285.361 251.971 284.656 251.375L284.519 251.249L279.558 246.287L259.055 258.048C259.034 258.063 259.016 258.08 258.994 258.093L253.152 261.572C252.801 261.781 252.353 261.723 252.066 261.432L250.204 259.542C249.797 259.128 249.89 258.441 250.393 258.151L253.768 256.198L253.767 256.196L254.516 255.765L259.505 252.88C259.562 252.848 259.62 252.823 259.678 252.804L278.79 241.841L278.955 241.755C279.738 241.389 280.665 241.512 281.325 242.07L281.462 242.197L286.426 247.161L304.905 236.627L303.109 233.609C302.758 233.018 303.183 232.269 303.871 232.268L315.264 232.256Z" fill="#002B7F"/>
<path d="M385.737 202.785C386.421 202.784 386.849 203.524 386.507 204.116L380.891 213.833C380.552 214.42 379.707 214.425 379.36 213.843L377.549 210.8L357.661 222.136C356.847 222.6 355.836 222.5 355.131 221.903L354.994 221.777L350.032 216.815L329.529 228.577C329.509 228.592 329.49 228.609 329.469 228.622L323.627 232.102C323.276 232.31 322.828 232.252 322.541 231.961L320.679 230.07C320.272 229.657 320.365 228.97 320.867 228.68L324.242 226.727L324.241 226.725L324.99 226.294L329.98 223.409C330.037 223.376 330.095 223.351 330.153 223.332L349.265 212.37L349.43 212.284C350.212 211.918 351.14 212.041 351.8 212.599L351.937 212.726L356.9 217.689L375.38 207.156L373.584 204.138C373.232 203.547 373.658 202.798 374.346 202.797L385.737 202.785Z" fill="#002B7F"/>
<path d="M227.704 295.897C228.387 295.897 228.814 296.637 228.472 297.229L222.856 306.945C222.517 307.532 221.672 307.537 221.326 306.955L219.515 303.913L199.627 315.249C198.813 315.713 197.802 315.613 197.096 315.017L196.96 314.891L191.998 309.929L171.492 321.692C171.472 321.706 171.455 321.723 171.434 321.735L165.593 325.214C165.241 325.423 164.793 325.365 164.507 325.074L162.644 323.183C162.238 322.769 162.331 322.082 162.833 321.792L166.208 319.84L166.207 319.838L166.841 319.474L171.945 316.522C172.002 316.49 172.06 316.466 172.118 316.446L191.23 305.483L191.395 305.397C192.178 305.031 193.105 305.154 193.765 305.712L193.902 305.839L198.866 310.803L217.346 300.269L215.55 297.25C215.198 296.659 215.623 295.91 216.311 295.909L227.704 295.897Z" fill="#002B7F"/>
<path d="M298.179 266.427C298.862 266.426 299.289 267.166 298.947 267.758L293.331 277.475C292.992 278.061 292.147 278.066 291.801 277.484L289.989 274.441L270.102 285.777C269.289 286.241 268.278 286.141 267.572 285.545L267.435 285.419L262.474 280.457L241.966 292.222C241.947 292.235 241.929 292.252 241.909 292.264L236.067 295.742C235.716 295.951 235.268 295.894 234.981 295.603L233.119 293.712C232.712 293.298 232.805 292.612 233.308 292.321L236.684 290.368L236.683 290.366L237.312 290.004L242.42 287.051C242.477 287.018 242.536 286.993 242.595 286.974L261.706 276.012L261.871 275.926C262.654 275.56 263.581 275.682 264.241 276.24L264.378 276.367L269.342 281.331L287.821 270.798L286.024 267.779C285.673 267.188 286.098 266.439 286.786 266.438L298.179 266.427Z" fill="#002B7F"/>
<path d="M368.653 236.955C369.337 236.955 369.764 237.694 369.422 238.286L363.806 248.003C363.467 248.589 362.622 248.595 362.275 248.013L360.465 244.971L340.576 256.307C339.762 256.77 338.751 256.671 338.046 256.074L337.909 255.948L332.947 250.986L312.438 262.752C312.419 262.765 312.403 262.781 312.384 262.792L306.542 266.271C306.191 266.48 305.743 266.422 305.456 266.131L303.594 264.24C303.187 263.827 303.28 263.14 303.782 262.85L307.157 260.896L307.156 260.896L307.699 260.583L312.895 257.579C312.953 257.546 313.012 257.521 313.071 257.502L332.18 246.541L332.345 246.455C333.128 246.089 334.055 246.212 334.715 246.77L334.852 246.896L339.815 251.86L358.296 241.326L356.499 238.308C356.147 237.717 356.573 236.967 357.261 236.967L368.653 236.955Z" fill="#002B7F"/>
<path d="M439.128 207.484C439.811 207.484 440.238 208.223 439.896 208.815L434.28 218.532C433.941 219.118 433.097 219.123 432.75 218.542L430.939 215.5L411.051 226.835C410.237 227.299 409.226 227.2 408.52 226.603L408.384 226.477L403.422 221.515L382.916 233.279C382.896 233.293 382.879 233.309 382.858 233.322L377.017 236.8C376.666 237.009 376.217 236.952 375.931 236.661L374.068 234.769C373.661 234.356 373.755 233.669 374.257 233.378L377.632 231.426L377.631 231.424L378.265 231.06L383.369 228.109C383.426 228.076 383.484 228.052 383.542 228.033L402.654 217.07L402.819 216.984C403.602 216.618 404.529 216.74 405.189 217.298L405.326 217.425L410.29 222.389L428.77 211.855L426.974 208.836C426.622 208.245 427.047 207.496 427.735 207.496L439.128 207.484Z" fill="#002B7F"/>
<path d="M281.094 300.597C281.777 300.596 282.204 301.336 281.862 301.928L276.246 311.645C275.907 312.231 275.063 312.236 274.716 311.654L272.904 308.611L253.017 319.947C252.203 320.411 251.192 320.311 250.487 319.715L250.35 319.589L245.388 314.627L224.885 326.389C224.865 326.403 224.846 326.421 224.824 326.434L218.983 329.912C218.632 330.121 218.183 330.064 217.897 329.772L216.034 327.882C215.627 327.468 215.721 326.782 216.223 326.491L219.598 324.538L219.597 324.536L220.346 324.105L225.335 321.221C225.392 321.188 225.45 321.164 225.508 321.145L244.62 310.182L244.785 310.096C245.568 309.73 246.495 309.852 247.155 310.41L247.292 310.537L252.256 315.501L270.736 304.968L268.94 301.949C268.588 301.358 269.014 300.609 269.701 300.608L281.094 300.597Z" fill="#002B7F"/>
<path d="M351.569 271.125C352.252 271.125 352.679 271.864 352.337 272.456L346.721 282.173C346.382 282.759 345.537 282.765 345.191 282.183L343.379 279.14L323.491 290.476C322.677 290.939 321.666 290.84 320.961 290.243L320.824 290.117L315.862 285.155L295.36 296.917C295.339 296.932 295.321 296.949 295.299 296.962L289.457 300.441C289.106 300.65 288.658 300.592 288.371 300.301L286.509 298.41C286.102 297.997 286.195 297.31 286.697 297.02L290.072 295.066L290.071 295.064L290.82 294.634L295.81 291.749C295.866 291.716 295.925 291.692 295.983 291.673L315.095 280.71L315.26 280.624C316.043 280.258 316.97 280.381 317.63 280.938L317.767 281.065L322.731 286.029L341.21 275.496L339.414 272.478C339.062 271.886 339.488 271.137 340.176 271.137L351.569 271.125Z" fill="#002B7F"/>
<path d="M422.043 241.654C422.726 241.654 423.154 242.394 422.812 242.985L417.195 252.702C416.856 253.288 416.012 253.294 415.665 252.712L413.854 249.669L393.967 261.005C393.153 261.469 392.142 261.369 391.437 260.772L391.3 260.646L386.338 255.685L365.83 267.449C365.811 267.463 365.794 267.479 365.774 267.491L359.932 270.97C359.581 271.179 359.133 271.121 358.846 270.83L356.984 268.939C356.576 268.526 356.67 267.839 357.172 267.549L360.548 265.596L360.547 265.594L361.177 265.231L366.284 262.278C366.342 262.245 366.401 262.221 366.459 262.201L385.57 251.239L385.736 251.153C386.518 250.787 387.446 250.91 388.106 251.468L388.242 251.595L393.206 256.559L411.686 246.025L409.889 243.007C409.537 242.416 409.963 241.667 410.651 241.666L422.043 241.654Z" fill="#002B7F"/>
<path d="M334.484 305.294C335.167 305.294 335.594 306.034 335.252 306.625L329.636 316.342C329.297 316.929 328.452 316.934 328.106 316.352L326.295 313.31L306.407 324.646C305.593 325.11 304.582 325.01 303.876 324.414L303.74 324.288L298.778 319.326L278.268 331.091C278.25 331.104 278.233 331.12 278.214 331.131L272.372 334.611C272.021 334.82 271.573 334.761 271.286 334.47L269.424 332.58C269.017 332.166 269.11 331.479 269.613 331.189L272.988 329.236L272.987 329.235L273.53 328.922L278.725 325.918C278.783 325.885 278.843 325.861 278.902 325.841L298.01 314.88L298.175 314.794C298.958 314.428 299.885 314.551 300.545 315.109L300.682 315.236L305.646 320.2L324.126 309.666L322.329 306.647C321.978 306.056 322.403 305.307 323.091 305.306L334.484 305.294Z" fill="#002B7F"/>
<path d="M404.958 275.824C405.642 275.823 406.069 276.563 405.727 277.155L400.111 286.872C399.771 287.458 398.927 287.463 398.58 286.881L396.769 283.838L376.881 295.174C376.067 295.638 375.056 295.538 374.351 294.942L374.214 294.816L369.252 289.854L348.746 301.618C348.727 301.632 348.709 301.648 348.689 301.661L342.847 305.139C342.496 305.348 342.048 305.291 341.761 305L339.899 303.109C339.492 302.695 339.585 302.009 340.087 301.718L343.462 299.765L343.461 299.763L344.21 299.333L349.2 296.448C349.256 296.415 349.315 296.391 349.372 296.372L368.485 285.409L368.65 285.323C369.432 284.957 370.36 285.079 371.02 285.637L371.157 285.764L376.12 290.728L394.6 280.195L392.804 277.176C392.452 276.585 392.878 275.836 393.566 275.835L404.958 275.824Z" fill="#002B7F"/>
</g>
<defs>
<clipPath id="clip0_2818_24770">
<rect width="390" height="319" fill="white"/>
</clipPath>
</defs>
</svg>
